PathFileType	3	(X/Y/Z)	D:\Vicon Database\Healthy Subjects\S0040\Jan. 30, 2020\Force Plate Walk 8.trc
DataRate	CameraRate	NumFrames	NumMarkers	Units	OrigDataRate	OrigDataStartFrame	OrigNumFrames
100.0	100.0	6	53	mm	100.0	427	319	
Frame#	Time	right_foot_cluster2			right_foot_cluster3			sternum_cluster1			sternum_cluster2			sternum_cluster3			left_asis			right_asis			left_psis			right_psis			sacrum_cluster1			sacrum_cluster2			sacrum_cluster3			left_lat_femoral_epicondyle			left_anterior_thigh15			left_anterior_thigh25			left_anterior_thigh50			left_lateral_thigh25			left_lateral_thigh50			left_thigh_cluster1			left_thigh_cluster2			left_thigh_cluster3			left_fibular_head			left_tibial_tuberosity			left_anterior_shank30			left_lateral_malleolus			left_shank_cluster1			left_shank_cluster2			left_shank_cluster3			left_heel			left_metatarsal2			left_foot_cluster1			left_foot_cluster2			left_foot_cluster3			right_lat_femoral_epicondyle			right_anterior_thigh15			right_anterior_thigh25			right_anterior_thigh50			right_lateral_thigh25			right_lateral_thigh50			right_thigh_cluster1			right_thigh_cluster2			right_thigh_cluster3			right_fibular_head			right_tibial_tuberosity			right_lateral_distal_shank			right_anterior_shank30			right_lateral_malleolus			right_shank_cluster1			right_shank_cluster2			right_shank_cluster3			right_heel			right_metatarsal2			right_foot_cluster1			
		X1	Y1	Z1	X2	Y2	Z2	X3	Y3	Z3	X4	Y4	Z4	X5	Y5	Z5	X6	Y6	Z6	X7	Y7	Z7	X8	Y8	Z8	X9	Y9	Z9	X10	Y10	Z10	X11	Y11	Z11	X12	Y12	Z12	X13	Y13	Z13	X14	Y14	Z14	X15	Y15	Z15	X16	Y16	Z16	X17	Y17	Z17	X18	Y18	Z18	X19	Y19	Z19	X20	Y20	Z20	X21	Y21	Z21	X22	Y22	Z22	X23	Y23	Z23	X24	Y24	Z24	X25	Y25	Z25	X26	Y26	Z26	X27	Y27	Z27	X28	Y28	Z28	X29	Y29	Z29	X30	Y30	Z30	X31	Y31	Z31	X32	Y32	Z32	X33	Y33	Z33	X34	Y34	Z34	X35	Y35	Z35	X36	Y36	Z36	X37	Y37	Z37	X38	Y38	Z38	X39	Y39	Z39	X40	Y40	Z40	X41	Y41	Z41	X42	Y42	Z42	X43	Y43	Z43	X44	Y44	Z44	X45	Y45	Z45	X46	Y46	Z46	X47	Y47	Z47	X48	Y48	Z48	X49	Y49	Z49	X50	Y50	Z50	X51	Y51	Z51	X52	Y52	Z52	X53	Y53	Z53	
427	4.26	1519.911	127.67443	-230.42235	1522.0157	129.35149	-268.05579	1496.0927	1458.396	-159.64478	1483.9906	1430.4653	-152.64084	1488.5757	1433.8812	-190.43903	1500.1528	1080.9513	-39.74292	1518.0898	1085.4347	-287.77625	1668.9436	1097.5334	-77.66671	1679.5829	1097.3762	-194.86465	1682.3351	1154.7222	-142.98859	1690.8174	1129.7137	-153.64204	1690.3242	1125.1321	-114.3996	1559.005	547.31982	-26.311489	1469.7064	628.58875	-83.159431	1451.0801	713.06488	-64.162102	1451.8513	851.53302	-38.503517	1559.1139	700.02704	0.064029545	1549.9005	847.0025	31.037659	1555.0266	800.35907	35.208958	1557.7772	771.36383	31.197744	1520.215	780.3924	32.790886	1559.5636	465.85782	-22.668089	1510.2501	455.19861	-82.921135	1564.6947	207.68248	-99.005455	1630.7439	100.7762	-69.532455	1519.7959	400.75375	-112.76228	1518.4222	372.62445	-105.20872	1536.7081	376.03207	-139.14427	1707.3358	66.435135	-102.0559	1488.3199	68.828293	-109.30701	1548.999	117.22688	-103.56875	1524.4711	102.02977	-93.034882	1521.3969	105.826	-131.28532	1428.1135	558.53906	-313.2193	1357.1755	661.22992	-268.59775	1371.3943	746.61041	-264.11578	1425.8717	866.81604	-260.80133	1475.1741	707.85083	-330.52432	1533.1534	846.28796	-347.58722	1520.0854	795.49359	-355.28479	1500.1473	774.12164	-354.83749	1535.5374	760.26147	-344.93927	1450.9246	499.02859	-315.06229	1397.0043	471.67819	-274.28177	1581.9178	267.00806	-286.68524	1530.6438	257.89667	-245.7883	1628.1334	170.4008	-269.30603	1431.6757	414.58463	-215.20142	1450.2546	392.13708	-207.0849	1432.8961	380.5943	-237.93761	1707.5376	169.55783	-225.22612	1505.871	85.502953	-239.99394	1536.2109	150.10735	-238.57889
428	4.27	1474.7977	126.21196	-232.41003	1477.6454	127.5859	-269.80975	1481.6936	1459.1171	-159.76344	1469.7167	1431.1108	-152.81329	1474.434	1434.4844	-190.66907	1486.2483	1080.8766	-39.741081	1504.3577	1086.7897	-287.48401	1655.1113	1098.4661	-77.738823	1665.9812	1098.6677	-194.89468	1668.8013	1155.7378	-142.66359	1677.1986	1130.8484	-153.48528	1675.7526	1125.8615	-114.3443	1555.0959	547.47882	-26.600283	1464.1802	627.2511	-83.25547	1443.3907	711.26593	-64.252708	1441.158	849.84192	-38.358616	1552.1696	700.48492	-0.3852042	1539.8429	847.03564	30.566013	1545.7872	800.75586	35.001862	1548.9943	771.4436	30.569979	1511.7761	780.26917	32.689186	1556.842	466.19043	-23.068756	1507.6599	455.0704	-83.255463	1563.681	207.89973	-99.427773	1630.3848	101.28406	-69.999512	1517.6165	400.74573	-113.01871	1515.97	372.65546	-105.56101	1534.264	376.13776	-139.4211	1707.2603	66.883842	-102.25414	1488.1017	68.592194	-109.49953	1548.845	116.80944	-104.16545	1523.9485	102.11087	-93.458961	1521.3265	105.67711	-131.72433	1408.7885	561.90601	-312.4364	1338.9294	666.23083	-268.53568	1354.1299	751.51538	-263.99026	1410.9618	870.43384	-260.48395	1458.0845	711.07629	-330.66861	1516.687	848.81036	-348.61832	1502.7253	798.01093	-356.8587	1483.3704	776.84009	-355.46872	1517.6206	762.57379	-346.11057	1430.28	501.1825	-314.26511	1374.3342	476.1011	-274.76141	1547.5396	260.81808	-286.81104	1494.5469	254.43533	-247.20108	1586.6086	160.9939	-269.94998	1404.8564	415.76648	-216.18042	1421.1718	392.49619	-208.15923	1403.5234	382.63083	-239.54892	1664.8379	154.09686	-225.35927	1458.3918	84.927109	-242.15697	1493.3162	147.22447	-240.26846
429	4.28	1429.8981	125.074	-234.74194	1433.0216	126.46236	-271.99097	1467.2953	1459.4528	-160.07355	1455.2841	1431.4724	-153.05292	1460.1023	1434.7948	-190.8288	1472.3353	1080.4938	-39.738541	1490.6007	1087.7635	-287.27545	1641.3849	1099.0745	-77.949585	1652.2805	1099.5995	-195.11087	1654.9286	1156.5753	-142.71831	1662.7266	1131.2045	-153.59544	1661.385	1126.1782	-114.6442	1551.262	548.02637	-26.840448	1458.5807	625.72021	-83.256882	1435.713	709.36584	-64.194672	1430.3466	848.04663	-38.311779	1545.2184	700.79144	-0.73223335	1529.6842	846.96692	30.064507	1536.687	800.90399	34.435528	1540.6099	771.95905	30.008139	1503.0323	779.67438	32.330463	1554.0262	466.58716	-23.390388	1504.2083	455.08252	-83.354576	1562.5085	208.05846	-99.620811	1629.9857	101.7886	-70.45916	1515.476	400.74319	-113.12505	1513.9382	372.63116	-105.76369	1531.8292	376.42511	-139.71553	1707.1107	67.340897	-102.5431	1487.7969	68.309418	-109.69274	1548.3126	117.04806	-104.37179	1523.5833	102.04768	-93.750725	1521.0103	105.46481	-132.04663	1390.7461	564.60663	-311.6813	1321.4109	670.37665	-268.29599	1337.576	755.58588	-263.51605	1396.1362	873.32404	-260.09448	1439.9396	714.05225	-331.20422	1500.5442	850.99078	-349.91415	1485.8202	800.19366	-358.10953	1465.9835	779.26147	-356.70633	1500.2549	764.35864	-347.44083	1410.1111	502.42545	-313.67056	1352.3322	480.15433	-275.07843	1512.1595	254.86151	-287.29178	1458.3074	251.27357	-248.90645	1544.1351	152.06645	-270.89877	1376.8152	417.92062	-217.44072	1392.4783	392.94659	-209.25732	1374.8129	384.7597	-241.12131	1621.7017	139.84987	-225.80577	1410.408	85.411034	-244.63013	1449.9971	144.88773	-242.33653
430	4.29	1384.9106	124.83726	-237.15675	1388.447	126.18868	-274.32825	1452.7731	1459.4502	-160.23607	1440.8257	1431.4677	-153.28847	1445.672	1434.8154	-191.0141	1458.4902	1079.799	-39.904495	1476.6748	1088.3854	-287.15347	1627.1998	1099.127	-78.416298	1638.536	1099.9528	-195.41624	1641.0492	1156.6094	-142.86916	1648.8353	1131.4844	-153.7477	1647.7117	1126.3318	-114.69943	1547.9292	548.36505	-27.011034	1452.9504	624.08813	-83.031471	1427.95	707.24829	-64.058472	1419.5786	846.01544	-38.253067	1538.1862	701.05713	-1.0535682	1519.4429	846.85419	29.587372	1527.4486	800.97797	33.946484	1531.8158	772.00208	29.768284	1493.9113	779.17804	32.222946	1551.2979	466.92108	-23.618608	1501.8807	454.65948	-83.388809	1561.6531	208.35526	-99.912415	1629.5197	102.38377	-70.88163	1513.0677	400.76212	-113.16902	1511.772	372.62747	-105.8516	1529.7303	376.30087	-139.81998	1706.8658	67.884796	-102.76651	1487.4399	68.005409	-109.92474	1547.3774	117.38341	-103.95161	1523.3527	101.89536	-94.007561	1520.5435	105.42534	-132.20171	1373.2557	566.77252	-310.73099	1304.4913	673.75879	-267.81888	1321.9456	758.61627	-262.81516	1381.4033	875.50146	-259.54279	1422.421	716.32092	-331.43576	1484.3409	852.73688	-351.15579	1468.9658	801.76239	-359.18982	1448.6039	781.06171	-357.67346	1483.3103	765.9245	-348.28799	1390.7074	503.43384	-312.75775	1331.0485	483.73135	-275.32291	1475.8983	248.79526	-288.46948	1421.9824	248.5899	-250.74074	1500.8984	143.76534	-272.06995	1350.4288	419.66931	-218.38882	1364.4015	393.73242	-210.23579	1346.8901	386.85284	-242.48592	1577.6093	126.29101	-226.61948	1362.8422	86.663818	-247.49486	1406.2975	143.29897	-244.55531
431	4.3	1339.9845	125.60436	-239.76047	1343.9656	126.83579	-276.87497	1438.7318	1459.1128	-160.5562	1426.3352	1431.0636	-153.52643	1431.3197	1434.3912	-191.32921	1444.6403	1078.8582	-40.043755	1462.7141	1088.6281	-287.24268	1613.4779	1098.8199	-78.797356	1624.7549	1099.9437	-195.85988	1627.3624	1156.2816	-143.10172	1635.9805	1131.6191	-153.99396	1634.7471	1126.3983	-114.95971	1544.1194	548.71454	-27.168724	1447.2107	622.26129	-82.576828	1420.2173	704.96338	-63.852356	1408.4171	844.10059	-38.066978	1531.3274	701.14722	-1.0695179	1509.1508	846.58569	29.189941	1517.9584	801.01367	33.533676	1522.7223	771.99683	29.233349	1485.0284	778.64404	31.899261	1548.6539	467.34613	-23.842949	1499.0702	454.52335	-83.210518	1560.2996	208.69934	-99.94841	1629.0988	102.89702	-71.187019	1510.5675	400.69394	-113.12881	1509.4067	372.62961	-105.67285	1526.9071	376.5997	-139.81764	1706.5885	68.494629	-103.09998	1487.0603	67.738846	-110.06764	1546.88	117.43902	-104.15687	1522.8605	101.89543	-94.273094	1520.1295	105.31622	-132.46519	1356.4541	568.13098	-309.72379	1288.3337	676.15826	-267.16699	1306.7103	760.6048	-261.74597	1366.8497	876.86633	-259.01071	1405.4489	717.77502	-331.41516	1468.6095	853.74762	-352.07593	1452.4816	802.61157	-360.07648	1432.1367	782.23877	-358.04129	1466.4297	766.72406	-349.19177	1371.447	503.52383	-311.95581	1310.4396	486.84537	-275.4429	1439.5139	243.12712	-289.54895	1385.549	246.44954	-252.44841	1457.2612	136.48787	-273.62128	1325.9071	421.10294	-219.12108	1337.0288	394.62177	-210.98599	1319.5986	389.02695	-243.50414	1532.6837	113.79971	-227.94247	1315.3417	89.150322	-250.50229	1362.7461	142.58492	-246.99927
432	4.31	1295.6709	127.39815	-242.41223	1299.8185	128.57719	-279.59644	1424.361	1458.2285	-160.87093	1411.8938	1430.2777	-153.76274	1416.8914	1433.5878	-191.5694	1430.8229	1077.7272	-40.236359	1448.5902	1088.4668	-287.3205	1599.4962	1098.0161	-79.530724	1610.8245	1099.4432	-196.50163	1613.6768	1155.8242	-143.54498	1622.1906	1130.9697	-154.57895	1621.1854	1125.7771	-115.40271	1540.4238	549.1911	-27.601633	1441.4742	620.39429	-81.970352	1412.3258	702.63245	-63.533226	1397.5173	841.92084	-37.881744	1523.9083	701.29358	-1.4148104	1498.8727	846.16058	28.65588	1508.4385	800.69983	33.36977	1513.7576	771.84705	28.937296	1475.953	777.79034	31.811457	1546.1177	467.73187	-24.052824	1497.1566	453.99289	-82.890488	1559.3678	208.83263	-99.829727	1628.4169	103.89891	-71.77845	1507.9043	400.55411	-112.9259	1506.9493	372.53348	-105.39756	1523.6943	376.68811	-139.19824	1706.3064	69.298103	-103.52074	1486.6519	67.47673	-110.26398	1546.892	117.10402	-105.22305	1522.3475	101.82395	-94.592262	1519.3812	105.27205	-132.64421	1340.0002	568.80682	-308.86163	1272.9606	677.43921	-266.25595	1292.103	761.42676	-260.44345	1352.3188	877.35022	-258.43579	1389.2986	718.34717	-331.42883	1452.8136	854.17535	-353.0213	1436.2977	802.86688	-360.81314	1415.3984	782.83472	-358.06088	1450.0765	766.84711	-349.67365	1352.4438	503.05957	-311.21622	1290.4485	489.39813	-275.39676	1403.2655	238.16035	-290.81061	1349.282	244.89923	-253.9211	1413.4531	130.16011	-275.50116	1301.6381	422.88168	-219.4229	1310.6951	395.77151	-211.38113	1292.9438	391.35464	-243.8519	1485.373	100.8373	-229.70674	1268.5973	92.768692	-253.56134	1319.3781	142.99986	-249.33774
